<svg width="32" height="32" viewBox="0 0 32 32" fill="none" xmlns="http://www.w3.org/2000/svg">
<path d="M15.7651 0.318019C14.8031 0.994226 14.7489 2.41633 15.6565 3.16579L27.5375 12.9764C28.4666 13.7436 27.9434 15.2626 26.7449 15.2676C23.4693 15.2813 19.0519 15.2556 15.6853 15.0722C11.2553 14.8307 5.05409 14.1204 1.97208 13.7471C0.965527 13.6252 0.0781476 14.421 0.078125 15.4484C0.0781029 16.457 0.933429 17.2467 1.92428 17.1534C4.991 16.8646 11.2374 16.3104 15.6853 16.1412C19.0557 16.0131 23.4752 16.0267 26.7505 16.0645C27.9454 16.0783 28.4618 17.5937 27.5354 18.3586L15.6565 28.1675C14.7489 28.917 14.8031 30.3391 15.7651 31.0153C16.5461 31.5642 17.6159 31.3854 18.1815 30.6114L23.063 23.9322C24.4448 22.0416 26.0689 20.3462 27.8926 18.8906L31.0946 16.3316C31.5168 15.9943 31.5171 15.3459 31.0954 15.0081L27.8926 12.4428C26.0689 10.9871 24.4448 9.29163 23.063 7.40112L18.1815 0.721897C17.6159 -0.0520628 16.5461 -0.230874 15.7651 0.318019Z" fill="#ECEBE9"/>
</svg>
