<svg width="95" height="97" viewBox="0 0 95 97" fill="none" xmlns="http://www.w3.org/2000/svg">
<g clip-path="url(#clip0_129_109)">
<path d="M94.0358 47.8082C91.9856 44.8908 87.6739 44.7264 85.4016 47.4789L55.6567 83.5086C53.3305 86.3263 48.725 84.7396 48.71 81.1051C48.6683 71.1715 48.7462 57.7756 49.3025 47.5661C50.0345 34.132 52.1881 15.3263 53.3199 5.97986C53.6896 2.92743 51.2767 0.236395 48.1618 0.236326C45.1037 0.236259 42.7096 2.83009 42.9923 5.83493C43.8679 15.1349 45.5482 34.0775 46.0612 47.5661C46.4497 57.7872 46.4083 71.1895 46.2939 81.1222C46.2519 84.7456 41.6575 86.3117 39.3382 83.5024L9.59861 47.4788C7.32602 44.7264 3.01441 44.8908 0.964259 47.8082C-0.699979 50.1765 -0.157906 53.4208 2.18883 55.1359L22.4396 69.9396C28.1717 74.1298 33.312 79.0549 37.7254 84.5855L45.484 94.296C46.5067 95.5761 48.4725 95.5771 49.4967 94.2983L57.2746 84.5855C61.688 79.0549 66.8286 74.1298 72.5604 69.9396L92.8113 55.1359C95.1578 53.4208 95.7 50.1765 94.0358 47.8082Z" fill="#030507"/>
</g>
<defs>
<clipPath id="clip0_129_109">
<rect width="97" height="95" fill="white" transform="translate(95) rotate(90)"/>
</clipPath>
</defs>
</svg>
