<svg width="95" height="96" viewBox="0 0 95 96" fill="none" xmlns="http://www.w3.org/2000/svg">
<path d="M0.964206 48.1918C3.01441 51.1092 7.3261 51.2736 9.59839 48.5211L39.3433 12.4914C41.6695 9.67368 46.275 11.2604 46.29 14.8949C46.3317 24.8285 46.2538 38.2244 45.6975 48.4339C44.9655 61.868 42.8119 80.6737 41.6801 90.0201C41.3104 93.0726 43.7233 95.7636 46.8382 95.7637C49.8963 95.7637 52.2904 93.1699 52.0077 90.1651C51.1321 80.8651 49.4518 61.9225 48.9388 48.4339C48.5503 38.2128 48.5917 24.8105 48.7061 14.8778C48.7481 11.2544 53.3425 9.68829 55.6618 12.4976L85.4014 48.5211C87.674 51.2736 91.9856 51.1092 94.0357 48.1918C95.7 45.8235 95.1579 42.5792 92.8112 40.8641L72.5604 26.0604C66.8283 21.8702 61.688 16.9451 57.2746 11.4145L49.516 1.70402C48.4933 0.423911 46.5275 0.422868 45.5033 1.7017L37.7254 11.4145C33.312 16.9451 28.1714 21.8702 22.4396 26.0604L2.18873 40.8641C-0.15785 42.5792 -0.699992 45.8235 0.964206 48.1918Z" fill="#030507"/>
</svg>
