<svg width="40" height="21" viewBox="0 0 40 21" fill="none" xmlns="http://www.w3.org/2000/svg">
<g clip-path="url(#clip0_129_68)">
<path d="M37.5 0.851562H2.5C1.11929 0.851562 0 1.97085 0 3.35156V18.3516C0 19.7323 1.11929 20.8516 2.5 20.8516H37.5C38.8807 20.8516 40 19.7323 40 18.3516V3.35156C40 1.97085 38.8807 0.851562 37.5 0.851562Z" fill="#ECEBE9"/>
<path d="M5 16.4766H8.125V5.22656H5V16.4766Z" fill="#030507"/>
<path d="M14.7953 5.22656L14.0959 10.4819L13.6614 7.62345C13.5354 6.70787 13.4145 5.90891 13.2988 5.22656H9.375V16.4766H12.026L12.0363 9.04769L13.1523 16.4766H15.0396L16.099 8.88393L16.1067 16.4766H18.75V5.22656H14.7953Z" fill="#030507"/>
<path d="M20 16.4766V5.22656H24.8778C25.9808 5.22656 26.875 6.11403 26.875 7.21194V14.4912C26.875 15.5877 25.9823 16.4766 24.8778 16.4766H20ZM23.6452 7.25126C23.5212 7.18427 23.2841 7.15201 22.9392 7.15201V14.5337C23.3946 14.5337 23.6748 14.4519 23.7799 14.2807C23.885 14.1119 23.9389 13.6554 23.9389 12.906V8.544C23.9389 8.03534 23.92 7.7103 23.885 7.56638C23.8499 7.42247 23.7718 7.31826 23.6452 7.25126Z" fill="#030507"/>
<path d="M32.7687 8.04335H32.9684C34.0904 8.04335 35 8.92198 35 10.0046V14.5153C35 15.5985 34.0907 16.4766 32.9684 16.4766H32.7687C32.0822 16.4766 31.4752 16.1476 31.1074 15.6442L30.9274 16.332H28.125V5.22656H31.1152V8.8394C31.5016 8.35791 32.097 8.04335 32.7687 8.04335ZM32.1285 13.5292V10.8635C32.1285 10.423 32.1002 10.134 32.0413 10.0009C31.9824 9.86786 31.7472 9.78243 31.5823 9.78243C31.4174 9.78243 31.163 9.85186 31.1135 9.96886V10.8635V13.6146V14.4812C31.1701 14.6097 31.4126 14.6812 31.5823 14.6812C31.752 14.6812 31.9989 14.612 32.0507 14.4812C32.1026 14.3505 32.1285 14.0316 32.1285 13.5292Z" fill="#030507"/>
</g>
<defs>
<clipPath id="clip0_129_68">
<rect width="40" height="20" fill="white" transform="translate(0 0.851562)"/>
</clipPath>
</defs>
</svg>
