<svg width="20" height="21" viewBox="0 0 20 21" fill="none" xmlns="http://www.w3.org/2000/svg">
<g clip-path="url(#clip0_129_80)">
<path d="M5.85842 0.155875C4.79442 0.206075 4.06782 0.375875 3.43262 0.625475C2.77522 0.881675 2.21802 1.22548 1.66362 1.78188C1.10922 2.33828 0.767816 2.89588 0.513416 3.55428C0.267216 4.19088 0.100416 4.91808 0.0534162 5.98268C0.00641622 7.04728 -0.00398378 7.38947 0.00121621 10.1051C0.00641621 12.8207 0.0184162 13.1611 0.0700162 14.2279C0.120816 15.2917 0.290016 16.0181 0.539616 16.6535C0.796216 17.3109 1.13962 17.8679 1.69622 18.4225C2.25282 18.9771 2.81002 19.3177 3.47002 19.5725C4.10602 19.8183 4.83342 19.9859 5.89782 20.0325C6.96222 20.0791 7.30482 20.0899 10.0196 20.0847C12.7344 20.0795 13.0762 20.0675 14.1428 20.0169C15.2094 19.9663 15.932 19.7959 16.5676 19.5475C17.225 19.2903 17.7824 18.9475 18.3366 18.3907C18.8908 17.8339 19.232 17.2759 19.4862 16.6171C19.7326 15.9811 19.9 15.2537 19.9462 14.1901C19.9928 13.1227 20.0038 12.7819 19.9986 10.0667C19.9934 7.35148 19.9812 7.01108 19.9306 5.94468C19.88 4.87828 19.7106 4.15408 19.4612 3.51828C19.2042 2.86088 18.8612 2.30428 18.3048 1.74928C17.7484 1.19428 17.19 0.853275 16.5314 0.599675C15.895 0.353475 15.168 0.185675 14.1036 0.139675C13.0392 0.0936751 12.6966 0.0818751 9.98082 0.0870751C7.26502 0.0922751 6.92502 0.103875 5.85842 0.155875ZM5.97522 18.2335C5.00022 18.1911 4.47082 18.0291 4.11802 17.8935C3.65082 17.7135 3.31802 17.4959 2.96642 17.1477C2.61482 16.7995 2.39882 16.4655 2.21642 15.9993C2.07942 15.6465 1.91442 15.1177 1.86882 14.1427C1.81922 13.0889 1.80882 12.7725 1.80302 10.1027C1.79722 7.43287 1.80742 7.11687 1.85362 6.06268C1.89522 5.08848 2.05822 4.55848 2.19362 4.20588C2.37362 3.73808 2.59042 3.40588 2.93942 3.05448C3.28842 2.70308 3.62142 2.48667 4.08802 2.30428C4.44042 2.16668 4.96922 2.00308 5.94382 1.95668C6.99842 1.90668 7.31442 1.89668 9.98382 1.89088C12.6532 1.88508 12.97 1.89508 14.025 1.94148C14.9992 1.98388 15.5294 2.14528 15.8816 2.28148C16.349 2.46148 16.6816 2.67768 17.033 3.02728C17.3844 3.37688 17.601 3.70868 17.7834 4.17628C17.9212 4.52768 18.0848 5.05628 18.1308 6.03148C18.181 7.08608 18.1924 7.40227 18.1972 10.0715C18.202 12.7407 18.1926 13.0577 18.1464 14.1115C18.1038 15.0865 17.9422 15.6161 17.8064 15.9693C17.6264 16.4363 17.4094 16.7693 17.0602 17.1205C16.711 17.4717 16.3784 17.6881 15.9116 17.8705C15.5596 18.0079 15.0302 18.1719 14.0564 18.2183C13.0018 18.2679 12.6858 18.2783 10.0154 18.2841C7.34502 18.2899 7.03002 18.2791 5.97542 18.2335M14.1274 4.74128C14.1278 4.97863 14.1986 5.21054 14.3308 5.40766C14.463 5.60479 14.6507 5.75828 14.8701 5.84873C15.0896 5.93918 15.3309 5.96252 15.5636 5.91579C15.7963 5.86907 16.01 5.75439 16.1775 5.58624C16.345 5.4181 16.4589 5.20405 16.5048 4.97117C16.5507 4.73829 16.5264 4.49704 16.4352 4.27793C16.3439 4.05882 16.1898 3.87169 15.9921 3.74021C15.7945 3.60873 15.5624 3.5388 15.325 3.53928C15.0068 3.53991 14.7019 3.66689 14.4773 3.8923C14.2527 4.11771 14.1269 4.42308 14.1274 4.74128ZM4.86542 10.0959C4.87102 12.9319 7.17422 15.2257 10.0096 15.2203C12.845 15.2149 15.1404 12.9119 15.135 10.0759C15.1296 7.23988 12.8258 4.94548 9.99002 4.95108C7.15422 4.95668 4.86002 7.26028 4.86542 10.0959ZM6.66662 10.0923C6.66531 9.43299 6.85954 8.78813 7.22473 8.23923C7.58992 7.69033 8.10968 7.26205 8.71828 7.00855C9.32688 6.75505 9.99698 6.68771 10.6438 6.81505C11.2907 6.94239 11.8853 7.25869 12.3524 7.72395C12.8195 8.18921 13.1382 8.78253 13.2681 9.42889C13.398 10.0753 13.3333 10.7456 13.0822 11.3552C12.8311 11.9648 12.4049 12.4863 11.8574 12.8536C11.31 13.221 10.6659 13.4178 10.0066 13.4191C9.56885 13.42 9.1352 13.3347 8.73041 13.168C8.32563 13.0013 7.95765 12.7565 7.64749 12.4475C7.33734 12.1386 7.09107 11.7716 6.92277 11.3675C6.75447 10.9634 6.66743 10.53 6.66662 10.0923Z" fill="#ECEBE9"/>
</g>
<defs>
<clipPath id="clip0_129_80">
<rect width="20" height="20" fill="white" transform="translate(0 0.0859375)"/>
</clipPath>
</defs>
</svg>
