<svg width="32" height="31" viewBox="0 0 32 31" fill="none" xmlns="http://www.w3.org/2000/svg">
<path d="M15.9028 30.682C16.8649 30.0058 16.9191 28.5837 16.0114 27.8342L4.1305 18.0236C3.20135 17.2564 3.72458 15.7374 4.92308 15.7324C8.19871 15.7187 12.6161 15.7444 15.9827 15.9278C20.4126 16.1693 26.6139 16.8796 29.6959 17.2529C30.7024 17.3748 31.5898 16.579 31.5898 15.5516C31.5899 14.543 30.7345 13.7533 29.7437 13.8466C26.677 14.1354 20.4306 14.6896 15.9827 14.8588C12.6122 14.9869 8.19279 14.9733 4.91742 14.9355C3.72259 14.9217 3.20616 13.4063 4.13256 12.6414L16.0114 2.83252C16.9191 2.08296 16.8649 0.660887 15.9029 -0.0153002C15.1219 -0.564207 14.0521 -0.385418 13.4865 0.388592L8.60493 7.06779C7.22321 8.95837 5.59911 10.6538 3.7754 12.1094L0.573324 14.6684C0.151203 15.0057 0.150857 15.6541 0.572559 15.9919L3.7754 18.5572C5.59911 20.0129 7.22321 21.7084 8.60493 23.5989L13.4865 30.2781C14.0521 31.0521 15.1219 31.2309 15.9028 30.682Z" fill="#ECEBE9"/>
</svg>
