<svg width="19" height="19" viewBox="0 0 19 19" fill="none" xmlns="http://www.w3.org/2000/svg">
<path d="M1.25378 1.46634C1.1022 2.33514 1.82762 3.11808 2.70644 3.03418L14.2103 1.93603C15.1099 1.85015 15.638 2.9332 15.005 3.57145C13.2751 5.31596 10.9187 7.64503 9.03598 9.33321C6.55853 11.5546 2.89304 14.4667 1.06055 15.9032C0.462064 16.3724 0.413497 17.265 0.958338 17.8099C1.49323 18.3448 2.36561 18.31 2.84166 17.735C4.31492 15.9555 7.33373 12.3488 9.60292 9.90015C11.3225 8.04471 13.6735 5.70811 15.4306 3.99107C16.0716 3.36473 17.1491 3.89448 17.0635 4.79146L15.9655 16.2933C15.8817 17.1721 16.6646 17.8975 17.5334 17.746C18.2387 17.6229 18.7112 16.9607 18.6007 16.2503L17.6474 10.1192C17.3776 8.38377 17.3398 6.62332 17.535 4.88415L17.8761 1.82885C17.9211 1.4261 17.5775 1.08207 17.1747 1.12656L14.1156 1.46471C12.3764 1.65993 10.6159 1.6221 8.88055 1.3523L2.74946 0.399037C2.03906 0.288529 1.37687 0.761064 1.25378 1.46634Z" fill="#ECEBE9"/>
</svg>
